<svg xmlns="http://www.w3.org/2000/svg" xmlns:xlink="http://www.w3.org/1999/xlink" xmlns:lucid="lucid" width="1760" height="710"><g transform="translate(0 0)" lucid:page-tab-id="0_0"><path d="M0 0h1760v1360H0z" fill-opacity="0"/><path d="M399.9 72c0-6.63 5.4-12 12-12h936.2c6.6 0 12 5.37 12 12v39.08c0 6.62-5.4 12-12 12H411.9c-6.6 0-12-5.38-12-12z" stroke="#000" stroke-opacity="0" stroke-width="2" fill="#fff" fill-opacity="0"/><use xlink:href="#a" transform="matrix(1,0,0,1,404.91289017655043,64.99999999999994) translate(240.31481481481478 32.333333333333336)"/><use xlink:href="#b" transform="matrix(1,0,0,1,404.91289017655043,64.99999999999994) translate(346.6111111111111 32.333333333333336)"/><use xlink:href="#c" transform="matrix(1,0,0,1,404.91289017655043,64.99999999999994) translate(457.64814814814815 32.333333333333336)"/><use xlink:href="#d" transform="matrix(1,0,0,1,404.91289017655043,64.99999999999994) translate(559.7962962962963 32.333333333333336)"/><use xlink:href="#e" transform="matrix(1,0,0,1,404.91289017655043,64.99999999999994) translate(604.1666666666667 32.333333333333336)"/><path d="M655.04 135.87c0-6.63 5.38-12 12-12h430c6.63 0 12 5.37 12 12v9.92c0 6.62-5.37 12-12 12h-430c-6.62 0-12-5.38-12-12z" stroke="#000" stroke-opacity="0" stroke-width="2" fill="#fff" fill-opacity="0"/><use xlink:href="#f" transform="matrix(1,0,0,1,660.0444743839482,128.86936285872477) translate(41.3641975308642 15.11111111111111)"/><use xlink:href="#g" transform="matrix(1,0,0,1,660.0444743839482,128.86936285872477) translate(100.90740740740742 15.11111111111111)"/><use xlink:href="#h" transform="matrix(1,0,0,1,660.0444743839482,128.86936285872477) translate(150.03703703703707 15.11111111111111)"/><use xlink:href="#i" transform="matrix(1,0,0,1,660.0444743839482,128.86936285872477) translate(162.13580246913583 15.11111111111111)"/><use xlink:href="#j" transform="matrix(1,0,0,1,660.0444743839482,128.86936285872477) translate(199.2962962962963 15.11111111111111)"/><use xlink:href="#k" transform="matrix(1,0,0,1,660.0444743839482,128.86936285872477) translate(264.0679012345679 15.11111111111111)"/><use xlink:href="#l" transform="matrix(1,0,0,1,660.0444743839482,128.86936285872477) translate(276.7283950617284 15.11111111111111)"/><use xlink:href="#m" transform="matrix(1,0,0,1,660.0444743839482,128.86936285872477) translate(343.141975308642 15.11111111111111)"/><use xlink:href="#n" transform="matrix(1,0,0,1,660.0444743839482,128.86936285872477) translate(369.0679012345679 15.11111111111111)"/><path d="M621.3 115.6h521.58M621.3 115.6h-3M1142.88 115.6h3" stroke="#b2b2b2" stroke-width="2" fill="none"/><path d="M320 400h320.1v168H320z" fill="#fff"/><path d="M320 400h320.1v168H320zM320 440h320.1M380 440v128M510.04 440v128" stroke="#666" fill="none"/><use xlink:href="#o" transform="matrix(1,0,0,1,330,400) translate(128.64814814814815 22.424242424242422)"/><use xlink:href="#p" transform="matrix(1,0,0,1,325,442.5) translate(13 17.1)"/><use xlink:href="#q" transform="matrix(1,0,0,1,385,442.5) translate(0 17.1)"/><use xlink:href="#r" transform="matrix(1,0,0,1,515.0435549117248,442.5) translate(0 17.1)"/><use xlink:href="#s" transform="matrix(1,0,0,1,385,474.5) translate(0 17.1)"/><use xlink:href="#t" transform="matrix(1,0,0,1,515.0435549117248,474.5) translate(0 17.1)"/><use xlink:href="#u" transform="matrix(1,0,0,1,385,506.5) translate(0 17.1)"/><use xlink:href="#t" transform="matrix(1,0,0,1,515.0435549117248,506.5) translate(0 17.1)"/><use xlink:href="#v" transform="matrix(1,0,0,1,325,538.5) translate(13.524999999999999 17.1)"/><use xlink:href="#w" transform="matrix(1,0,0,1,385,538.5) translate(0 17.1)"/><use xlink:href="#r" transform="matrix(1,0,0,1,515.0435549117248,538.5) translate(0 17.1)"/><path d="M712.04 240h340v104h-340z" fill="#fff"/><path d="M712.04 240h340v104h-340zM712.04 280h340M772.04 280v64M912.04 280v64" stroke="#666" fill="none"/><use xlink:href="#x" transform="matrix(1,0,0,1,722.0444743839482,240) translate(145.2020202020202 22.424242424242422)"/><use xlink:href="#p" transform="matrix(1,0,0,1,717.0444743839482,282.5) translate(13 17.1)"/><use xlink:href="#w" transform="matrix(1,0,0,1,777.0444743839482,282.5) translate(0 17.1)"/><use xlink:href="#r" transform="matrix(1,0,0,1,917.0444743839482,282.5) translate(0 17.1)"/><use xlink:href="#y" transform="matrix(1,0,0,1,777.0444743839482,314.5) translate(0 17.1)"/><use xlink:href="#t" transform="matrix(1,0,0,1,917.0444743839482,314.5) translate(0 17.1)"/><path d="M1109.04 400h580v200h-580z" fill="#fff"/><path d="M1109.04 400h580v200h-580zM1109.04 440h580M1169.04 440v160M1429.04 440v160" stroke="#666" fill="none"/><use xlink:href="#z" transform="matrix(1,0,0,1,1119.0444743839485,400) translate(252.07070707070707 22.424242424242422)"/><use xlink:href="#p" transform="matrix(1,0,0,1,1114.0444743839485,442.5) translate(13 17.1)"/><use xlink:href="#q" transform="matrix(1,0,0,1,1174.0444743839485,442.5) translate(0 17.1)"/><use xlink:href="#r" transform="matrix(1,0,0,1,1434.0444743839485,442.5) translate(0 17.1)"/><use xlink:href="#y" transform="matrix(1,0,0,1,1174.0444743839485,474.5) translate(0 17.1)"/><use xlink:href="#t" transform="matrix(1,0,0,1,1434.0444743839485,474.5) translate(0 17.1)"/><use xlink:href="#A" transform="matrix(1,0,0,1,1174.0444743839485,506.5) translate(0 17.1)"/><use xlink:href="#r" transform="matrix(1,0,0,1,1434.0444743839485,506.5) translate(0 17.1)"/><use xlink:href="#B" transform="matrix(1,0,0,1,1174.0444743839485,538.5) translate(0 17.1)"/><use xlink:href="#r" transform="matrix(1,0,0,1,1434.0444743839485,538.5) translate(0 17.1)"/><use xlink:href="#v" transform="matrix(1,0,0,1,1114.0444743839485,570.5) translate(13.524999999999999 17.1)"/><use xlink:href="#w" transform="matrix(1,0,0,1,1174.0444743839485,570.5) translate(0 17.1)"/><g><use xlink:href="#r" transform="matrix(1,0,0,1,1434.0444743839485,570.5) translate(0 17.1)"/></g><path d="M1068.93 296h11.6v288.14h8.6" stroke="#666" fill="none"/><path d="M1068.43 300.65l-14.27-4.64 14.27-4.62z" fill="#666"/><path d="M1068.93 301.34l-16.4-5.33 16.4-5.3zm-13.15-5.33l12.15 3.96v-7.9zM1108.54 574.6l-19.1 9.54 19.1 9.56-.44.9-20.9-10.46 20.9-10.44z" fill="#666"/><path d="M1108.32 584.64h-20v-1h20z" fill="#666"/><path d="M656.97 552.2h19.1V296h19.1" stroke="#666" fill="none"/><path d="M656.47 556.85l-14.26-4.64 14.27-4.62z" fill="#666"/><path d="M656.97 557.54l-16.38-5.33 16.37-5.3zm-13.15-5.33l12.15 3.96v-7.9zM709.93 296l-14.27 4.65v-9.27z" fill="#666"/><path d="M711.54 296l-16.38 5.34V290.7zm-15.38 3.96L708.3 296l-12.14-3.94z" fill="#666"/><defs><path fill="#b2b2b2" d="M169-182c-1-43-94-46-97-3 18 66 151 10 154 114 3 95-165 93-204 36-6-8-10-19-12-30l50-8c3 46 112 56 116 5-17-69-150-10-154-114-4-87 153-88 188-35 5 8 8 18 10 28" id="C"/><path fill="#b2b2b2" d="M115-3C79 11 28 4 28-45v-112H4v-33h27l15-45h31v45h36v33H77v99c-1 23 16 31 38 25v30" id="D"/><path fill="#b2b2b2" d="M85 4C-2 5 27-109 22-190h50c7 57-23 150 33 157 60-5 35-97 40-157h50l1 190h-47c-2-12 1-28-3-38-12 25-28 42-61 42" id="E"/><path fill="#b2b2b2" d="M88-194c31-1 46 15 58 34l-1-101h50l1 261h-48c-2-10 0-23-3-31C134-8 116 4 84 4 32 4 16-41 15-95c0-56 19-97 73-99zm17 164c33 0 40-30 41-66 1-37-9-64-41-64s-38 30-39 65c0 43 13 65 39 65" id="F"/><path fill="#b2b2b2" d="M185-48c-13 30-37 53-82 52C43 2 14-33 14-96s30-98 90-98c62 0 83 45 84 108H66c0 31 8 55 39 56 18 0 30-7 34-22zm-45-69c5-46-57-63-70-21-2 6-4 13-4 21h74" id="G"/><path fill="#b2b2b2" d="M135-194c87-1 58 113 63 194h-50c-7-57 23-157-34-157-59 0-34 97-39 157H25l-1-190h47c2 12-1 28 3 38 12-26 28-41 61-42" id="H"/><g id="a"><use transform="matrix(0.07407407407407408,0,0,0.07407407407407408,0,0)" xlink:href="#C"/><use transform="matrix(0.07407407407407408,0,0,0.07407407407407408,17.77777777777778,0)" xlink:href="#D"/><use transform="matrix(0.07407407407407408,0,0,0.07407407407407408,26.592592592592595,0)" xlink:href="#E"/><use transform="matrix(0.07407407407407408,0,0,0.07407407407407408,42.814814814814824,0)" xlink:href="#F"/><use transform="matrix(0.07407407407407408,0,0,0.07407407407407408,59.03703703703705,0)" xlink:href="#G"/><use transform="matrix(0.07407407407407408,0,0,0.07407407407407408,73.85185185185188,0)" xlink:href="#H"/><use transform="matrix(0.07407407407407408,0,0,0.07407407407407408,90.0740740740741,0)" xlink:href="#D"/></g><path fill="#b2b2b2" d="M24-248c93 1 206-16 204 79-1 75-69 88-152 82V0H24v-248zm52 121c47 0 100 7 100-41 0-47-54-39-100-39v80" id="I"/><path fill="#b2b2b2" d="M135-150c-39-12-60 13-60 57V0H25l-1-190h47c2 13-1 29 3 40 6-28 27-53 61-41v41" id="J"/><path fill="#b2b2b2" d="M133-34C117-15 103 5 69 4 32 3 11-16 11-54c-1-60 55-63 116-61 1-26-3-47-28-47-18 1-26 9-28 27l-52-2c7-38 36-58 82-57s74 22 75 68l1 82c-1 14 12 18 25 15v27c-30 8-71 5-69-32zm-48 3c29 0 43-24 42-57-32 0-66-3-65 30 0 17 8 27 23 27" id="K"/><path fill="#b2b2b2" d="M190-63c-7 42-38 67-86 67-59 0-84-38-90-98-12-110 154-137 174-36l-49 2c-2-19-15-32-35-32-30 0-35 28-38 64-6 74 65 87 74 30" id="L"/><path fill="#b2b2b2" d="M25-224v-37h50v37H25zM25 0v-190h50V0H25" id="M"/><g id="b"><use transform="matrix(0.07407407407407408,0,0,0.07407407407407408,0,0)" xlink:href="#I"/><use transform="matrix(0.07407407407407408,0,0,0.07407407407407408,17.77777777777778,0)" xlink:href="#J"/><use transform="matrix(0.07407407407407408,0,0,0.07407407407407408,28.148148148148152,0)" xlink:href="#K"/><use transform="matrix(0.07407407407407408,0,0,0.07407407407407408,42.96296296296297,0)" xlink:href="#L"/><use transform="matrix(0.07407407407407408,0,0,0.07407407407407408,57.777777777777786,0)" xlink:href="#D"/><use transform="matrix(0.07407407407407408,0,0,0.07407407407407408,66.59259259259261,0)" xlink:href="#M"/><use transform="matrix(0.07407407407407408,0,0,0.07407407407407408,74.00000000000001,0)" xlink:href="#L"/><use transform="matrix(0.07407407407407408,0,0,0.07407407407407408,88.81481481481484,0)" xlink:href="#G"/></g><path fill="#b2b2b2" d="M136-208V0H84v-208H4v-40h212v40h-80" id="N"/><path fill="#b2b2b2" d="M147 0L96-86 75-71V0H25v-261h50v150l67-79h53l-66 74L201 0h-54" id="O"/><g id="c"><use transform="matrix(0.07407407407407408,0,0,0.07407407407407408,0,0)" xlink:href="#N"/><use transform="matrix(0.07407407407407408,0,0,0.07407407407407408,14.740740740740744,0)" xlink:href="#J"/><use transform="matrix(0.07407407407407408,0,0,0.07407407407407408,25.111111111111114,0)" xlink:href="#K"/><use transform="matrix(0.07407407407407408,0,0,0.07407407407407408,39.92592592592593,0)" xlink:href="#L"/><use transform="matrix(0.07407407407407408,0,0,0.07407407407407408,54.74074074074075,0)" xlink:href="#O"/><use transform="matrix(0.07407407407407408,0,0,0.07407407407407408,69.55555555555557,0)" xlink:href="#G"/><use transform="matrix(0.07407407407407408,0,0,0.07407407407407408,84.37037037037038,0)" xlink:href="#J"/></g><path fill="#b2b2b2" d="M24 0v-248h195v40H76v63h132v40H76v65h150V0H24" id="P"/><path fill="#b2b2b2" d="M240-174c0 40-23 61-54 70L253 0h-59l-57-94H76V0H24v-248c93 4 217-23 216 74zM76-134c48-2 112 12 112-38 0-48-66-32-112-35v73" id="Q"/><g id="d"><use transform="matrix(0.07407407407407408,0,0,0.07407407407407408,0,0)" xlink:href="#P"/><use transform="matrix(0.07407407407407408,0,0,0.07407407407407408,17.77777777777778,0)" xlink:href="#Q"/></g><path fill="#b2b2b2" d="M24-248c120-7 223 5 221 122C244-46 201 0 124 0H24v-248zM76-40c74 7 117-18 117-86 0-67-45-88-117-82v168" id="R"/><path fill="#b2b2b2" d="M24 0v-248h52V0H24" id="S"/><path fill="#b2b2b2" d="M195-6C206 82 75 100 31 46c-4-6-6-13-8-21l49-6c3 16 16 24 34 25 40 0 42-37 40-79-11 22-30 35-61 35-53 0-70-43-70-97 0-56 18-96 73-97 30 0 46 14 59 34l2-30h47zm-90-29c32 0 41-27 41-63 0-35-9-62-40-62-32 0-39 29-40 63 0 36 9 62 39 62" id="T"/><path fill="#b2b2b2" d="M220-157c-53 9-28 100-34 157h-49v-107c1-27-5-49-29-50C55-147 81-57 75 0H25l-1-190h47c2 12-1 28 3 38 10-53 101-56 108 0 13-22 24-43 59-42 82 1 51 116 57 194h-49v-107c-1-25-5-48-29-50" id="U"/><g id="e"><use transform="matrix(0.07407407407407408,0,0,0.07407407407407408,0,0)" xlink:href="#R"/><use transform="matrix(0.07407407407407408,0,0,0.07407407407407408,19.185185185185187,0)" xlink:href="#S"/><use transform="matrix(0.07407407407407408,0,0,0.07407407407407408,26.592592592592595,0)" xlink:href="#K"/><use transform="matrix(0.07407407407407408,0,0,0.07407407407407408,41.40740740740741,0)" xlink:href="#T"/><use transform="matrix(0.07407407407407408,0,0,0.07407407407407408,57.62962962962964,0)" xlink:href="#J"/><use transform="matrix(0.07407407407407408,0,0,0.07407407407407408,68,0)" xlink:href="#K"/><use transform="matrix(0.07407407407407408,0,0,0.07407407407407408,82.81481481481481,0)" xlink:href="#U"/></g><path fill="#b2b2b2" d="M233-177c-1 41-23 64-60 70L243 0h-38l-65-103H63V0H30v-248c88 3 205-21 203 71zM63-129c60-2 137 13 137-47 0-61-80-42-137-45v92" id="V"/><path fill="#b2b2b2" d="M100-194c62-1 85 37 85 99 1 63-27 99-86 99S16-35 15-95c0-66 28-99 85-99zM99-20c44 1 53-31 53-75 0-43-8-75-51-75s-53 32-53 75 10 74 51 75" id="W"/><path fill="#b2b2b2" d="M115-194c53 0 69 39 70 98 0 66-23 100-70 100C84 3 66-7 56-30L54 0H23l1-261h32v101c10-23 28-34 59-34zm-8 174c40 0 45-34 45-75 0-40-5-75-45-74-42 0-51 32-51 76 0 43 10 73 51 73" id="X"/><path fill="#b2b2b2" d="M100-194c63 0 86 42 84 106H49c0 40 14 67 53 68 26 1 43-12 49-29l28 8c-11 28-37 45-77 45C44 4 14-33 15-96c1-61 26-98 85-98zm52 81c6-60-76-77-97-28-3 7-6 17-6 28h103" id="Y"/><path fill="#b2b2b2" d="M114-163C36-179 61-72 57 0H25l-1-190h30c1 12-1 29 2 39 6-27 23-49 58-41v29" id="Z"/><path fill="#b2b2b2" d="M59-47c-2 24 18 29 38 22v24C64 9 27 4 27-40v-127H5v-23h24l9-43h21v43h35v23H59v120" id="aa"/><g id="f"><use transform="matrix(0.04320987654320988,0,0,0.04320987654320988,0,0)" xlink:href="#V"/><use transform="matrix(0.04320987654320988,0,0,0.04320987654320988,11.19135802469136,0)" xlink:href="#W"/><use transform="matrix(0.04320987654320988,0,0,0.04320987654320988,19.833333333333336,0)" xlink:href="#X"/><use transform="matrix(0.04320987654320988,0,0,0.04320987654320988,28.47530864197531,0)" xlink:href="#Y"/><use transform="matrix(0.04320987654320988,0,0,0.04320987654320988,37.117283950617285,0)" xlink:href="#Z"/><use transform="matrix(0.04320987654320988,0,0,0.04320987654320988,42.25925925925926,0)" xlink:href="#aa"/><use transform="matrix(0.04320987654320988,0,0,0.04320987654320988,46.58024691358024,0)" xlink:href="#W"/></g><path fill="#b2b2b2" d="M24-231v-30h32v30H24zM24 0v-190h32V0H24" id="ab"/><path fill="#b2b2b2" d="M108 0H70L1-190h34L89-25l56-165h34" id="ac"/><path fill="#b2b2b2" d="M141-36C126-15 110 5 73 4 37 3 15-17 15-53c-1-64 63-63 125-63 3-35-9-54-41-54-24 1-41 7-42 31l-33-3c5-37 33-52 76-52 45 0 72 20 72 64v82c-1 20 7 32 28 27v20c-31 9-61-2-59-35zM48-53c0 20 12 33 32 33 41-3 63-29 60-74-43 2-92-5-92 41" id="ad"/><g id="g"><use transform="matrix(0.04320987654320988,0,0,0.04320987654320988,0,0)" xlink:href="#V"/><use transform="matrix(0.04320987654320988,0,0,0.04320987654320988,11.19135802469136,0)" xlink:href="#ab"/><use transform="matrix(0.04320987654320988,0,0,0.04320987654320988,14.60493827160494,0)" xlink:href="#ac"/><use transform="matrix(0.04320987654320988,0,0,0.04320987654320988,22.38271604938272,0)" xlink:href="#Y"/><use transform="matrix(0.04320987654320988,0,0,0.04320987654320988,31.024691358024693,0)" xlink:href="#Z"/><use transform="matrix(0.04320987654320988,0,0,0.04320987654320988,36.16666666666667,0)" xlink:href="#ad"/></g><path fill="#b2b2b2" d="M179-190L93 31C79 59 56 82 12 73V49c39 6 53-20 64-50L1-190h34L92-34l54-156h33" id="ae"/><use transform="matrix(0.04320987654320988,0,0,0.04320987654320988,0,0)" xlink:href="#ae" id="h"/><path fill="#b2b2b2" d="M153-248C145-148 188 4 80 4 36 3 13-21 6-62l32-5c4 25 16 42 43 43 27 0 39-20 39-49v-147H72v-28h81" id="af"/><path fill="#b2b2b2" d="M135-143c-3-34-86-38-87 0 15 53 115 12 119 90S17 21 10-45l28-5c4 36 97 45 98 0-10-56-113-15-118-90-4-57 82-63 122-42 12 7 21 19 24 35" id="ag"/><g id="i"><use transform="matrix(0.04320987654320988,0,0,0.04320987654320988,0,0)" xlink:href="#af"/><use transform="matrix(0.04320987654320988,0,0,0.04320987654320988,7.777777777777779,0)" xlink:href="#W"/><use transform="matrix(0.04320987654320988,0,0,0.04320987654320988,16.419753086419753,0)" xlink:href="#ag"/><use transform="matrix(0.04320987654320988,0,0,0.04320987654320988,24.19753086419753,0)" xlink:href="#Y"/></g><path fill="#b2b2b2" d="M63-220v92h138v28H63V0H30v-248h175v28H63" id="ah"/><path fill="#b2b2b2" d="M84 4C-5 8 30-112 23-190h32v120c0 31 7 50 39 49 72-2 45-101 50-169h31l1 190h-30c-1-10 1-25-2-33-11 22-28 36-60 37" id="ai"/><path fill="#b2b2b2" d="M117-194c89-4 53 116 60 194h-32v-121c0-31-8-49-39-48C34-167 62-67 57 0H25l-1-190h30c1 10-1 24 2 32 11-22 29-35 61-36" id="aj"/><g id="j"><use transform="matrix(0.04320987654320988,0,0,0.04320987654320988,0,0)" xlink:href="#ah"/><use transform="matrix(0.04320987654320988,0,0,0.04320987654320988,9.462962962962964,0)" xlink:href="#ai"/><use transform="matrix(0.04320987654320988,0,0,0.04320987654320988,18.10493827160494,0)" xlink:href="#Y"/><use transform="matrix(0.04320987654320988,0,0,0.04320987654320988,26.746913580246915,0)" xlink:href="#aj"/><use transform="matrix(0.04320987654320988,0,0,0.04320987654320988,35.38888888888889,0)" xlink:href="#aa"/><use transform="matrix(0.04320987654320988,0,0,0.04320987654320988,39.70987654320988,0)" xlink:href="#Y"/><use transform="matrix(0.04320987654320988,0,0,0.04320987654320988,48.351851851851855,0)" xlink:href="#ag"/></g><path fill="#b2b2b2" d="M32 76v-337h29V76H32" id="ak"/><use transform="matrix(0.04320987654320988,0,0,0.04320987654320988,0,0)" xlink:href="#ak" id="k"/><g id="l"><use transform="matrix(0.04320987654320988,0,0,0.04320987654320988,0,0)" xlink:href="#ah"/><use transform="matrix(0.04320987654320988,0,0,0.04320987654320988,9.462962962962964,0)" xlink:href="#Y"/><use transform="matrix(0.04320987654320988,0,0,0.04320987654320988,18.10493827160494,0)" xlink:href="#X"/><use transform="matrix(0.04320987654320988,0,0,0.04320987654320988,26.746913580246915,0)" xlink:href="#Z"/><use transform="matrix(0.04320987654320988,0,0,0.04320987654320988,31.888888888888893,0)" xlink:href="#ai"/><use transform="matrix(0.04320987654320988,0,0,0.04320987654320988,40.53086419753087,0)" xlink:href="#ad"/><use transform="matrix(0.04320987654320988,0,0,0.04320987654320988,49.17283950617284,0)" xlink:href="#Z"/><use transform="matrix(0.04320987654320988,0,0,0.04320987654320988,54.314814814814824,0)" xlink:href="#ae"/></g><path fill="#b2b2b2" d="M101-251c82-7 93 87 43 132L82-64C71-53 59-42 53-27h129V0H18c2-99 128-94 128-182 0-28-16-43-45-43s-46 15-49 41l-32-3c6-41 34-60 81-64" id="al"/><path fill="#b2b2b2" d="M64 0c3-98 48-159 88-221H18v-27h164v26C143-157 98-101 97 0H64" id="am"/><path fill="#b2b2b2" d="M68-38c1 34 0 65-14 84H32c9-13 17-26 17-46H33v-38h35" id="an"/><g id="m"><use transform="matrix(0.04320987654320988,0,0,0.04320987654320988,0,0)" xlink:href="#al"/><use transform="matrix(0.04320987654320988,0,0,0.04320987654320988,8.641975308641976,0)" xlink:href="#am"/><use transform="matrix(0.04320987654320988,0,0,0.04320987654320988,17.283950617283953,0)" xlink:href="#an"/></g><path fill="#b2b2b2" d="M101-251c68 0 85 55 85 127S166 4 100 4C33 4 14-52 14-124c0-73 17-127 87-127zm-1 229c47 0 54-49 54-102s-4-102-53-102c-51 0-55 48-55 102 0 53 5 102 54 102" id="ao"/><path fill="#b2b2b2" d="M27 0v-27h64v-190l-56 39v-29l58-41h29v221h61V0H27" id="ap"/><path fill="#b2b2b2" d="M99-251c64 0 84 50 84 122C183-37 130 33 47-8c-14-7-20-23-25-40l30-5c6 39 69 39 84 7 9-19 16-44 16-74-10 22-31 35-62 35-49 0-73-33-73-83 0-54 28-83 82-83zm-1 141c31-1 51-18 51-49 0-36-14-67-51-67-34 0-49 23-49 58 0 34 15 58 49 58" id="aq"/><g id="n"><use transform="matrix(0.04320987654320988,0,0,0.04320987654320988,0,0)" xlink:href="#al"/><use transform="matrix(0.04320987654320988,0,0,0.04320987654320988,8.641975308641976,0)" xlink:href="#ao"/><use transform="matrix(0.04320987654320988,0,0,0.04320987654320988,17.283950617283953,0)" xlink:href="#ap"/><use transform="matrix(0.04320987654320988,0,0,0.04320987654320988,25.925925925925927,0)" xlink:href="#aq"/></g><path fill="#666" d="M210-169c-67 3-38 105-44 169h-31v-121c0-29-5-50-35-48C34-165 62-65 56 0H25l-1-190h30c1 10-1 24 2 32 10-44 99-50 107 0 11-21 27-35 58-36 85-2 47 119 55 194h-31v-121c0-29-5-49-35-48" id="ar"/><path fill="#666" d="M141-36C126-15 110 5 73 4 37 3 15-17 15-53c-1-64 63-63 125-63 3-35-9-54-41-54-24 1-41 7-42 31l-33-3c5-37 33-52 76-52 45 0 72 20 72 64v82c-1 20 7 32 28 27v20c-31 9-61-2-59-35zM48-53c0 20 12 33 32 33 41-3 63-29 60-74-43 2-92-5-92 41" id="as"/><path fill="#666" d="M100-194c63 0 86 42 84 106H49c0 40 14 67 53 68 26 1 43-12 49-29l28 8c-11 28-37 45-77 45C44 4 14-33 15-96c1-61 26-98 85-98zm52 81c6-60-76-77-97-28-3 7-6 17-6 28h103" id="at"/><path fill="#666" d="M135-143c-3-34-86-38-87 0 15 53 115 12 119 90S17 21 10-45l28-5c4 36 97 45 98 0-10-56-113-15-118-90-4-57 82-63 122-42 12 7 21 19 24 35" id="au"/><path fill="#666" d="M59-47c-2 24 18 29 38 22v24C64 9 27 4 27-40v-127H5v-23h24l9-43h21v43h35v23H59v120" id="av"/><path fill="#666" d="M114-163C36-179 61-72 57 0H25l-1-190h30c1 12-1 29 2 39 6-27 23-49 58-41v29" id="aw"/><path fill="#666" d="M100-194c62-1 85 37 85 99 1 63-27 99-86 99S16-35 15-95c0-66 28-99 85-99zM99-20c44 1 53-31 53-75 0-43-8-75-51-75s-53 32-53 75 10 74 51 75" id="ax"/><g id="o"><use transform="matrix(0.03367003367003366,0,0,0.03367003367003366,0,0)" xlink:href="#ar"/><use transform="matrix(0.03367003367003366,0,0,0.03367003367003366,10.067340067340066,0)" xlink:href="#as"/><use transform="matrix(0.03367003367003366,0,0,0.03367003367003366,16.8013468013468,0)" xlink:href="#at"/><use transform="matrix(0.03367003367003366,0,0,0.03367003367003366,23.535353535353533,0)" xlink:href="#au"/><use transform="matrix(0.03367003367003366,0,0,0.03367003367003366,29.59595959595959,0)" xlink:href="#av"/><use transform="matrix(0.03367003367003366,0,0,0.03367003367003366,32.962962962962955,0)" xlink:href="#aw"/><use transform="matrix(0.03367003367003366,0,0,0.03367003367003366,36.96969696969696,0)" xlink:href="#ax"/></g><path d="M30-248c87 1 191-15 191 75 0 78-77 80-158 76V0H30v-248zm33 125c57 0 124 11 124-50 0-59-68-47-124-48v98" id="ay"/><path d="M194 0L95-120 63-95V0H30v-248h33v124l119-124h40L117-140 236 0h-42" id="az"/><g id="p"><use transform="matrix(0.05,0,0,0.05,0,0)" xlink:href="#ay"/><use transform="matrix(0.05,0,0,0.05,12,0)" xlink:href="#az"/></g><path d="M33 0v-248h34V0H33" id="aA"/><path d="M30-248c118-7 216 8 213 122C240-48 200 0 122 0H30v-248zM63-27c89 8 146-16 146-99s-60-101-146-95v194" id="aB"/><g id="q"><use transform="matrix(0.05,0,0,0.05,0,0)" xlink:href="#aA"/><use transform="matrix(0.05,0,0,0.05,5,0)" xlink:href="#aB"/></g><path d="M190 0L58-211 59 0H30v-248h39L202-35l-2-213h31V0h-41" id="aC"/><path d="M127-220V0H93v-220H8v-28h204v28h-85" id="aD"/><g id="r"><use transform="matrix(0.05,0,0,0.05,0,0)" xlink:href="#aA"/><use transform="matrix(0.05,0,0,0.05,5,0)" xlink:href="#aC"/><use transform="matrix(0.05,0,0,0.05,17.950000000000003,0)" xlink:href="#aD"/></g><path d="M100-194c62-1 85 37 85 99 1 63-27 99-86 99S16-35 15-95c0-66 28-99 85-99zM99-20c44 1 53-31 53-75 0-43-8-75-51-75s-53 32-53 75 10 74 51 75" id="aE"/><path d="M210-169c-67 3-38 105-44 169h-31v-121c0-29-5-50-35-48C34-165 62-65 56 0H25l-1-190h30c1 10-1 24 2 32 10-44 99-50 107 0 11-21 27-35 58-36 85-2 47 119 55 194h-31v-121c0-29-5-49-35-48" id="aF"/><path d="M115-194c53 0 69 39 70 98 0 66-23 100-70 100C84 3 66-7 56-30L54 0H23l1-261h32v101c10-23 28-34 59-34zm-8 174c40 0 45-34 45-75 0-40-5-75-45-74-42 0-51 32-51 76 0 43 10 73 51 73" id="aG"/><path d="M114-163C36-179 61-72 57 0H25l-1-190h30c1 12-1 29 2 39 6-27 23-49 58-41v29" id="aH"/><path d="M100-194c63 0 86 42 84 106H49c0 40 14 67 53 68 26 1 43-12 49-29l28 8c-11 28-37 45-77 45C44 4 14-33 15-96c1-61 26-98 85-98zm52 81c6-60-76-77-97-28-3 7-6 17-6 28h103" id="aI"/><g id="s"><use transform="matrix(0.05,0,0,0.05,0,0)" xlink:href="#aC"/><use transform="matrix(0.05,0,0,0.05,12.950000000000001,0)" xlink:href="#aE"/><use transform="matrix(0.05,0,0,0.05,22.950000000000003,0)" xlink:href="#aF"/><use transform="matrix(0.05,0,0,0.05,37.900000000000006,0)" xlink:href="#aG"/><use transform="matrix(0.05,0,0,0.05,47.900000000000006,0)" xlink:href="#aH"/><use transform="matrix(0.05,0,0,0.05,53.85,0)" xlink:href="#aI"/></g><path d="M137 0h-34L2-248h35l83 218 83-218h36" id="aJ"/><path d="M205 0l-28-72H64L36 0H1l101-248h38L239 0h-34zm-38-99l-47-123c-12 45-31 82-46 123h93" id="aK"/><path d="M233-177c-1 41-23 64-60 70L243 0h-38l-65-103H63V0H30v-248c88 3 205-21 203 71zM63-129c60-2 137 13 137-47 0-61-80-42-137-45v92" id="aL"/><path d="M212-179c-10-28-35-45-73-45-59 0-87 40-87 99 0 60 29 101 89 101 43 0 62-24 78-52l27 14C228-24 195 4 139 4 59 4 22-46 18-125c-6-104 99-153 187-111 19 9 31 26 39 46" id="aM"/><path d="M197 0v-115H63V0H30v-248h33v105h134v-105h34V0h-34" id="aN"/><path d="M87 75C49 33 22-17 22-94c0-76 28-126 65-167h31c-38 41-64 92-64 168S80 34 118 75H87" id="aO"/><path d="M54-142c48-35 137-8 131 61C196 18 31 33 14-55l32-4c7 23 22 37 52 37 35-1 51-22 54-58 4-55-73-65-99-34H22l8-134h141v27H59" id="aP"/><path d="M101-251c68 0 85 55 85 127S166 4 100 4C33 4 14-52 14-124c0-73 17-127 87-127zm-1 229c47 0 54-49 54-102s-4-102-53-102c-51 0-55 48-55 102 0 53 5 102 54 102" id="aQ"/><path d="M33-261c38 41 65 92 65 168S71 34 33 75H2C39 34 66-17 66-93S39-220 2-261h31" id="aR"/><g id="t"><use transform="matrix(0.05,0,0,0.05,0,0)" xlink:href="#aJ"/><use transform="matrix(0.05,0,0,0.05,10.65,0)" xlink:href="#aK"/><use transform="matrix(0.05,0,0,0.05,22.65,0)" xlink:href="#aL"/><use transform="matrix(0.05,0,0,0.05,35.6,0)" xlink:href="#aM"/><use transform="matrix(0.05,0,0,0.05,48.550000000000004,0)" xlink:href="#aN"/><use transform="matrix(0.05,0,0,0.05,61.5,0)" xlink:href="#aK"/><use transform="matrix(0.05,0,0,0.05,73.5,0)" xlink:href="#aL"/><use transform="matrix(0.05,0,0,0.05,86.45,0)" xlink:href="#aO"/><use transform="matrix(0.05,0,0,0.05,92.4,0)" xlink:href="#aP"/><use transform="matrix(0.05,0,0,0.05,102.4,0)" xlink:href="#aQ"/><use transform="matrix(0.05,0,0,0.05,112.4,0)" xlink:href="#aR"/></g><path d="M30 0v-248h187v28H63v79h144v27H63v87h162V0H30" id="aS"/><path d="M135-143c-3-34-86-38-87 0 15 53 115 12 119 90S17 21 10-45l28-5c4 36 97 45 98 0-10-56-113-15-118-90-4-57 82-63 122-42 12 7 21 19 24 35" id="aT"/><path d="M115-194c55 1 70 41 70 98S169 2 115 4C84 4 66-9 55-30l1 105H24l-1-265h31l2 30c10-21 28-34 59-34zm-8 174c40 0 45-34 45-75s-6-73-45-74c-42 0-51 32-51 76 0 43 10 73 51 73" id="aU"/><path d="M96-169c-40 0-48 33-48 73s9 75 48 75c24 0 41-14 43-38l32 2c-6 37-31 61-74 61-59 0-76-41-82-99-10-93 101-131 147-64 4 7 5 14 7 22l-32 3c-4-21-16-35-41-35" id="aV"/><path d="M24-231v-30h32v30H24zM24 0v-190h32V0H24" id="aW"/><path d="M141-36C126-15 110 5 73 4 37 3 15-17 15-53c-1-64 63-63 125-63 3-35-9-54-41-54-24 1-41 7-42 31l-33-3c5-37 33-52 76-52 45 0 72 20 72 64v82c-1 20 7 32 28 27v20c-31 9-61-2-59-35zM48-53c0 20 12 33 32 33 41-3 63-29 60-74-43 2-92-5-92 41" id="aX"/><path d="M24 0v-261h32V0H24" id="aY"/><path d="M9 0v-24l116-142H16v-24h144v24L44-24h123V0H9" id="aZ"/><path d="M100-194c62-1 85 37 85 99 1 63-27 99-86 99S16-35 15-95c0-66 28-99 85-99zM99-20c44 1 53-31 53-75 0-43-8-75-51-75s-53 32-53 75 10 74 51 75zM76-211c8-23 27-35 38-54h36v5l-58 49H76" id="ba"/><path d="M117-194c89-4 53 116 60 194h-32v-121c0-31-8-49-39-48C34-167 62-67 57 0H25l-1-190h30c1 10-1 24 2 32 11-22 29-35 61-36" id="bb"/><g id="u"><use transform="matrix(0.05,0,0,0.05,0,0)" xlink:href="#aS"/><use transform="matrix(0.05,0,0,0.05,12,0)" xlink:href="#aT"/><use transform="matrix(0.05,0,0,0.05,21,0)" xlink:href="#aU"/><use transform="matrix(0.05,0,0,0.05,31,0)" xlink:href="#aI"/><use transform="matrix(0.05,0,0,0.05,41,0)" xlink:href="#aV"/><use transform="matrix(0.05,0,0,0.05,50,0)" xlink:href="#aW"/><use transform="matrix(0.05,0,0,0.05,53.95,0)" xlink:href="#aX"/><use transform="matrix(0.05,0,0,0.05,63.95,0)" xlink:href="#aY"/><use transform="matrix(0.05,0,0,0.05,67.9,0)" xlink:href="#aW"/><use transform="matrix(0.05,0,0,0.05,71.85000000000001,0)" xlink:href="#aZ"/><use transform="matrix(0.05,0,0,0.05,80.85000000000001,0)" xlink:href="#aX"/><use transform="matrix(0.05,0,0,0.05,90.85000000000001,0)" xlink:href="#aV"/><use transform="matrix(0.05,0,0,0.05,99.85000000000001,0)" xlink:href="#aW"/><use transform="matrix(0.05,0,0,0.05,103.80000000000001,0)" xlink:href="#ba"/><use transform="matrix(0.05,0,0,0.05,113.80000000000001,0)" xlink:href="#bb"/></g><path d="M63-220v92h138v28H63V0H30v-248h175v28H63" id="bc"/><g id="v"><use transform="matrix(0.05,0,0,0.05,0,0)" xlink:href="#bc"/><use transform="matrix(0.05,0,0,0.05,10.950000000000001,0)" xlink:href="#az"/></g><path d="M85-194c31 0 48 13 60 33l-1-100h32l1 261h-30c-2-10 0-23-3-31C134-8 116 4 85 4 32 4 16-35 15-94c0-66 23-100 70-100zm9 24c-40 0-46 34-46 75 0 40 6 74 45 74 42 0 51-32 51-76 0-42-9-74-50-73" id="bd"/><path d="M177-190C167-65 218 103 67 71c-23-6-38-20-44-43l32-5c15 47 100 32 89-28v-30C133-14 115 1 83 1 29 1 15-40 15-95c0-56 16-97 71-98 29-1 48 16 59 35 1-10 0-23 2-32h30zM94-22c36 0 50-32 50-73 0-42-14-75-50-75-39 0-46 34-46 75s6 73 46 73" id="be"/><g id="w"><use transform="matrix(0.05,0,0,0.05,0,0)" xlink:href="#aV"/><use transform="matrix(0.05,0,0,0.05,9,0)" xlink:href="#aE"/><use transform="matrix(0.05,0,0,0.05,19,0)" xlink:href="#bd"/><use transform="matrix(0.05,0,0,0.05,29,0)" xlink:href="#aW"/><use transform="matrix(0.05,0,0,0.05,32.95,0)" xlink:href="#be"/><use transform="matrix(0.05,0,0,0.05,42.95,0)" xlink:href="#aE"/></g><path fill="#666" d="M96-169c-40 0-48 33-48 73s9 75 48 75c24 0 41-14 43-38l32 2c-6 37-31 61-74 61-59 0-76-41-82-99-10-93 101-131 147-64 4 7 5 14 7 22l-32 3c-4-21-16-35-41-35" id="bf"/><path fill="#666" d="M84 4C-5 8 30-112 23-190h32v120c0 31 7 50 39 49 72-2 45-101 50-169h31l1 190h-30c-1-10 1-25-2-33-11 22-28 36-60 37" id="bg"/><g id="x"><use transform="matrix(0.03367003367003366,0,0,0.03367003367003366,0,0)" xlink:href="#bf"/><use transform="matrix(0.03367003367003366,0,0,0.03367003367003366,6.06060606060606,0)" xlink:href="#bg"/><use transform="matrix(0.03367003367003366,0,0,0.03367003367003366,12.794612794612792,0)" xlink:href="#aw"/><use transform="matrix(0.03367003367003366,0,0,0.03367003367003366,16.8013468013468,0)" xlink:href="#au"/><use transform="matrix(0.03367003367003366,0,0,0.03367003367003366,22.861952861952858,0)" xlink:href="#ax"/></g><g id="y"><use transform="matrix(0.05,0,0,0.05,0,0)" xlink:href="#bb"/><use transform="matrix(0.05,0,0,0.05,10,0)" xlink:href="#aE"/><use transform="matrix(0.05,0,0,0.05,20,0)" xlink:href="#aF"/><use transform="matrix(0.05,0,0,0.05,34.95,0)" xlink:href="#aG"/><use transform="matrix(0.05,0,0,0.05,44.95,0)" xlink:href="#aH"/><use transform="matrix(0.05,0,0,0.05,50.900000000000006,0)" xlink:href="#aI"/></g><path fill="#666" d="M85-194c31 0 48 13 60 33l-1-100h32l1 261h-30c-2-10 0-23-3-31C134-8 116 4 85 4 32 4 16-35 15-94c0-66 23-100 70-100zm9 24c-40 0-46 34-46 75 0 40 6 74 45 74 42 0 51-32 51-76 0-42-9-74-50-73" id="bh"/><path fill="#666" d="M24-231v-30h32v30H24zM24 0v-190h32V0H24" id="bi"/><path fill="#666" d="M117-194c89-4 53 116 60 194h-32v-121c0-31-8-49-39-48C34-167 62-67 57 0H25l-1-190h30c1 10-1 24 2 32 11-22 29-35 61-36" id="bj"/><g id="z"><use transform="matrix(0.03367003367003366,0,0,0.03367003367003366,0,0)" xlink:href="#at"/><use transform="matrix(0.03367003367003366,0,0,0.03367003367003366,6.734006734006733,0)" xlink:href="#au"/><use transform="matrix(0.03367003367003366,0,0,0.03367003367003366,12.794612794612792,0)" xlink:href="#av"/><use transform="matrix(0.03367003367003366,0,0,0.03367003367003366,16.16161616161616,0)" xlink:href="#bg"/><use transform="matrix(0.03367003367003366,0,0,0.03367003367003366,22.895622895622893,0)" xlink:href="#bh"/><use transform="matrix(0.03367003367003366,0,0,0.03367003367003366,29.629629629629626,0)" xlink:href="#bi"/><use transform="matrix(0.03367003367003366,0,0,0.03367003367003366,32.289562289562284,0)" xlink:href="#as"/><use transform="matrix(0.03367003367003366,0,0,0.03367003367003366,39.02356902356902,0)" xlink:href="#bj"/><use transform="matrix(0.03367003367003366,0,0,0.03367003367003366,45.75757575757575,0)" xlink:href="#av"/><use transform="matrix(0.03367003367003366,0,0,0.03367003367003366,49.124579124579114,0)" xlink:href="#at"/></g><path d="M59-47c-2 24 18 29 38 22v24C64 9 27 4 27-40v-127H5v-23h24l9-43h21v43h35v23H59v120" id="bk"/><g id="A"><use transform="matrix(0.05,0,0,0.05,0,0)" xlink:href="#bk"/><use transform="matrix(0.05,0,0,0.05,5,0)" xlink:href="#aE"/><use transform="matrix(0.05,0,0,0.05,15,0)" xlink:href="#bk"/><use transform="matrix(0.05,0,0,0.05,20,0)" xlink:href="#aX"/><use transform="matrix(0.05,0,0,0.05,30,0)" xlink:href="#aY"/><use transform="matrix(0.05,0,0,0.05,33.95,0)" xlink:href="#aN"/><use transform="matrix(0.05,0,0,0.05,46.900000000000006,0)" xlink:href="#aE"/><use transform="matrix(0.05,0,0,0.05,56.900000000000006,0)" xlink:href="#aH"/><use transform="matrix(0.05,0,0,0.05,62.85,0)" xlink:href="#aX"/><use transform="matrix(0.05,0,0,0.05,72.85000000000001,0)" xlink:href="#aT"/></g><path d="M118-194c89-4 53 116 60 194h-32v-121c0-31-8-49-39-48C35-167 63-67 58 0H26l-1-190h30c1 10-1 24 2 32 11-22 29-35 61-36zm47-64c-3 23-9 48-36 47-26-1-65-44-74 0H39c4-23 8-48 36-47s64 44 74 0h16" id="bl"/><g id="B"><use transform="matrix(0.05,0,0,0.05,0,0)" xlink:href="#aX"/><use transform="matrix(0.05,0,0,0.05,10,0)" xlink:href="#bl"/><use transform="matrix(0.05,0,0,0.05,20,0)" xlink:href="#aE"/></g></defs></g></svg>